<svg xmlns="http://www.w3.org/2000/svg" viewBox="0 0 1038.46 119.98">
  <defs>
    <style>
      .logoDABfill {
        fill: #fcd303;
      }
    </style>
  </defs>
  <g id="logo-DAB">
      <path class="logoDABfill" d="M708,104.82c-5.1-.56-10.27-.75-15.28-1.75-9.45-1.87-13.17-8.28-12.21-19.44.49-5.78,2.28-12.39.22-17.25C677.45,58.59,679,51,678.28,43.3c-.54-6.28-1-12.74-.1-18.93A14.33,14.33,0,0,1,689.06,12.7c12.34-3.15,24.22-1.1,34.28,6.9,3.39,2.7,5.68,7.12,7.57,11.18.77,1.67-.58,4.55-1.42,6.69-1.44,3.67-3.73,7.08-4.66,10.84-.41,1.64,1.2,4.43,2.73,5.72,2,1.65,4.66,2.52,7.17,3.34,7.88,2.6,10.84,7.69,9.44,16-.49,2.86.19,5.93-.41,8.75a16.67,16.67,0,0,1-3.29,7.47C731.94,99.28,721.34,104.83,708,104.82ZM704.76,68.3c-7.45,0-10,2.88-8.64,8.55.82,3.36,1.74,6.7,2.85,10a5.66,5.66,0,0,0,2.24,2.48c7.95,5.39,23.9,2.77,29.66-5,2.07-2.77,1.56-5.26-.93-7.93C722.64,68.54,712.56,70.28,704.76,68.3Zm-12.7-35.6c.91,4.78,1.56,10.07,3.1,15.08.4,1.3,3.86,2.79,5.42,2.37a36.65,36.65,0,0,0,9.74-4.69c4.81-3.06,5.17-7,.62-10.37a63.65,63.65,0,0,0-12.53-6.89C695,26.7,692.72,28.52,692.06,32.7Z"/>
      <path class="logoDABfill" d="M3.57,109.64a10.29,10.29,0,0,1-.27-8.53c1.88-4,.63-8.68.33-13C3,79.05,1.4,70.11.72,61,.12,53.09.16,45.12,0,37.18A6.83,6.83,0,0,1,6.4,29.93a6,6,0,0,1,.85,0,183.09,183.09,0,0,1,21.19,1.62c13.07,2.1,29,17,30.85,30,1.86,12.7-.24,24.66-8.57,35.59a64.15,64.15,0,0,1-27,21c-9.28,3.93-16.21.56-20.13-8.44ZM18.14,75.82h0c1.47,6.41,2.79,12.87,4.47,19.22,1.48,5.62,5.48,6.88,9.23,2.56C38.25,90.22,45,82.8,47.18,72.89a17.7,17.7,0,0,0-1.36-10.25c-4-9.1-11.87-14-21.06-16.68-2.45-.71-6.28-.6-7.87.87s-1.24,5.1-.89,7.68c.88,6.55,2.16,13,3.32,19.56A1.51,1.51,0,0,1,18.14,75.82Z"/>
      <path class="logoDABfill" d="M792.2,91.12a8.54,8.54,0,0,1-3.46-10.42c2.32-6.08.42-12-1.22-17.8-.25-.9-1.14-1.7-1.14-2.55,0-5.23-.63-10.6.33-15.66,1.89-10.06,4.58-20,7.18-29.88a5.54,5.54,0,0,1,3.25-3.42c9.1-2.22,18.26-5.55,27.71-2.94,10,2.76,18.62,19.25,15,28.78-1.19,3.14-4.33,5.81-7.13,8-3.09,2.4-3.54,4.81-2.23,8.21,3.11,8,6.55,16,8.87,24.26,1.35,4.82,1.12,10.18,1,15.28-.08,3.44-3,5.59-5.89,3.89-3.67-2.18-8-5.19-9.4-8.85-3.36-8.75-5.25-18.09-7.58-27.22-.71-2.79-1.46-5.39-5-5.07-4,.37-9.63-.49-10.06,5-.63,7.88-2.14,16.09,2.07,23.75.76,1.38.83,4.56,0,5.13-2.45,1.7-5.92,4-8.27,3.32A16.59,16.59,0,0,1,792.2,91.12Zm14.42-48.18a8.7,8.7,0,0,0,6-.6c4.44-2.08,10.25-3.15,13.67-9.06,2.68-4.65,1.38-7.44-2-10.22-5.35-4.34-13.23-4.75-15.56-.37A60,60,0,0,0,803.51,37C802.77,40.2,803.77,42.14,806.62,42.94Z"/>
      <path class="logoDABfill" d="M906.25,9.36a8,8,0,0,1,7.09,1.09c2.51,1.76,4.92,3.46,7.22,5.32a35.52,35.52,0,0,1,7,6.74c10.64,15.44,14.73,33.62,20.71,51,1.42,4.12,1.45,8.85,1.42,13.3,0,1.78-1.63,4.71-3,5.07-2.26.57-6.06.32-7.24-1.15a52.84,52.84,0,0,1-8.58-14.24c-3-8-3.45-8.81-11.8-8.22a37.45,37.45,0,0,1-7.9-.76c-4-.58-6.5.81-7.26,4.88-.68,3.59-1.15,7.22-2,10.76-.67,2.7-1.62,5.33-2.52,8l-4,1.06L888,85.7a1.68,1.68,0,0,1-.12-2.37,1.54,1.54,0,0,1,.47-.37h0c.74-2.43,2-4.84,2.12-7.31.42-8.47-.1-17,.75-25.44,1.13-11.16,3-22.26,5-33.29.38-2,2.69-4.22,4.66-5.35A27.42,27.42,0,0,1,906.25,9.36Zm1.8,40c-1,6.4,4.49,5.78,8.06,6.9,1.66.52,4.7,0,5.55-1.22s.42-4,0-5.94a57.35,57.35,0,0,0-2.7-8.39,49.46,49.46,0,0,0-3.88-8.51,5,5,0,0,0-4.1-1.66c-.83.12-1.89,2.17-2,3.43-.47,5.15-.65,10.3-.93,15.43Z"/>
      <path class="logoDABfill" d="M498,34.58a4.65,4.65,0,0,1,5.46.14c2.11,1.6,4.08,3,5.17,5a33.51,33.51,0,0,1,4.14,12.64c1,10.35,2.94,20.15,9.1,29a133.94,133.94,0,0,1,9.92,17.74c.79,1.6.15,4-.1,6-.09.7-.93,1.37-1.55,1.9-2.66,2.27-4.92,7-8.88,4.68-3.17-1.87-5.1-6-7.33-9.24-.78-1.17-.68-2.9-1.19-4.3-2.52-7-3.62-7.49-11-6.72a162.17,162.17,0,0,1-17.08.74c-4.57,0-5.66,2.63-6.65,6.43a129,129,0,0,1-5.74,16.77c-1.56,3.76-4.56,5.82-8.85,3.87-3.57-1.61-6-6.75-4.78-10.5A87.55,87.55,0,0,1,463,98.18c4.26-8.74,8.78-17.35,13-26.11,1.7-3.54,2.45-7.58,4.35-11,4.43-8,9.18-15.75,14.09-23.37A12.38,12.38,0,0,1,498,34.58Zm-8,36.25a4.31,4.31,0,0,0,.6,4.48c.76.93,1.49,1.7,2.11,1.62,3.83-.48,7.87-1.31,11.14-3.2,1-.6,0-4.94-.26-7.56a24.39,24.39,0,0,0-.8-3.87c-1.08-4.13-4.73-5.56-7.25-2.25-2.27,3.05-3.69,6.78-5.49,10.78Z"/>
      <path class="logoDABfill" d="M187,26.49c4.4-.44,8,.71,8.56,5.84.54,4.75-4.58,6.41-8.31,8.11-1.4.63-3.33,0-4.82.56-2.19.77-5,1.55-6,3.25s-.78,4.86.16,6.77c2.26,4.59,6.85,5.68,11.61,6.54,9.41,1.71,19,4.12,23.19,13.82,2,4.67,2.07,10.67,1.42,15.86-2.09,16.49-20.5,28.65-36.45,23.94-8.07-2.39-14.68-7.81-19.56-14.78-3-4.3-.9-8.67,5.15-11.92,3.66-2,7.34-.24,9.67,4.13,1.45,2.74,2.89,5.84,5.21,7.68,4.39,3.48,18-1.91,18.82-7.47a8.66,8.66,0,0,0-2.6-6.85c-7.92-6.55-16.19-12.68-24.41-18.86-11.43-8.58-10.22-23.76.44-31,4.07-2.78,9.38-3.76,14.32-5.27a11.46,11.46,0,0,1,2.52-.43C186.39,26.33,187,26.24,187,26.49Z"/>
      <path class="logoDABfill" d="M1020.71,89.06c-5.85-1.1-11.8-1.8-17.52-3.37-13.55-3.75-19.78-15.19-25.47-26.44-1.67-3.31-.9-8.81.59-12.59,4.55-11.54,9.12-23.14,23.47-26.65,11.55-2.83,20.55.57,28.22,8.8,1,1.06,1.59,4,.91,4.75-1.66,1.77-4.11,2.85-6.37,4-.55.27-1.59-.28-2.35-.6-11.76-4.93-16.42-4-25.35,5.07a7.3,7.3,0,0,0-1.72,2.39c-4.6,12.11,4.16,25.48,17.08,25.75,6.14.14,12.3-.83,18.43-.6,2.61.1,6.36,1.35,7.39,3.26s.1,5.77-1.2,8.07C1033.39,86.91,1028,89.77,1020.71,89.06Z"/>
      <path class="logoDABfill" d="M292.31,85.52c3.75-.64,7.51-1.8,11.25-1.75a11.13,11.13,0,0,1,7.21,3c1,1.07.63,4.62-.38,6.29-3.76,6.22-11.92,10.15-21.11,7.82-2.55-.64-5.27-.59-7.89-1a33.57,33.57,0,0,1-24.15-16c-3.49-5.57-8.53-10.48-7.25-18a16.22,16.22,0,0,1,.7-3.9c2.87-6.34,5.88-12.61,8.83-18.91,2.71-5.77,7.14-8.69,13.58-9.38,10.25-1.08,20.4-2.15,28,6.79,1.47,1.73,2.93,5.46,2.09,6.69-1.23,1.81-4.48,2.68-7,3a9,9,0,0,1-5.62-1.75c-8.75-6-13.78,1.65-19.72,5.37-5.07,3.17-5.5,7.9-4.21,13.6,1.2,5.27,1.42,11.18,6.87,13.56s10.6,3,16.27,4.47a5.32,5.32,0,0,0,2.31.18A.24.24,0,0,0,292.31,85.52Z"/>
      <path class="logoDABfill" d="M114.45,112a6.57,6.57,0,0,1-7.36.81c-5.88-3.22-6.23-9.25-5.85-16.3.64-11.59,0-23.24.09-34.86,0-4.13-.26-8.48.92-12.32a7,7,0,0,1,2.61-3.13,5.1,5.1,0,0,1,6.57.3c1.54,1.41,2.92,2.85,3.18,4.47,2.34,14.53,4.06,29.16,5.62,43.8C121.09,102.91,119.34,107.84,114.45,112Z"/>
      <path class="logoDABfill" d="M428.27,73a13.59,13.59,0,0,1-9.82,1c-2-.62-4.41-.23-6.93.24-6,1.12-12.23,1.29-18.25,2.45s-11.34,1.15-15.85-2.17a4.82,4.82,0,0,1-1-6.73c.1-.14.22-.27.33-.4A31.9,31.9,0,0,1,382,62.55c1.45-1,4.3.26,6.5.19,11.46-.35,22.91-1.13,34.36-1,3,0,6.51,2.28,8.77,4.54,1.26,1.25,2,4.9-2.11,6.16A8.41,8.41,0,0,0,428.27,73Z"/>
      <path class="logoDABfill" d="M471.51,4.79c5.82-5.83,11.33-6,19.81-2.33,6.14,2.65,13,3.62,19.36,5.83,2.57.89,6.41,2.88,6.64,4.74A20.12,20.12,0,0,1,515.1,24.7c-.82,1.46-6.08,1.87-8.41.79C494.43,19.83,481.13,15.82,471.51,4.79Z"/>
      <path class="logoDABfill" d="M614.92,57.77a7.47,7.47,0,0,1,6.48,2.59,1.18,1.18,0,0,0,.21.18c5.65,3.66,5.33,7.28.12,11-1,.68-2,1.67-3.06,1.69-11.73.27-23.47.2-35.2.6-5.33.18-10.28-.19-14.06-4.35a3.48,3.48,0,0,1,0-3.37c7-6.41,15.74-6.09,24.27-5.16,6.58.72,12.78,1.12,18.84-2.38A6.87,6.87,0,0,1,614.92,57.77Z"/>
      <path class="logoDABfill" d="M105.41,37.54c-5.19,0-11.86-6-11.81-10.77,0-3.09,7.12-9.25,10.62-9.23,6.32,0,14.17,5.64,14,10C118.06,31.6,110.51,37.5,105.41,37.54Z"/>
  </g>
</svg>
